<svg width="23" height="24" viewBox="0 0 23 24" fill="none" xmlns="http://www.w3.org/2000/svg">
<g filter="url(#filter0_d_126_8793)">
<path d="M18.7629 0.0746751C18.9103 0.165778 19 0.326712 19 0.500001V15.5C19 15.7761 18.7761 16 18.5 16H15.5C15.2239 16 15 15.7761 15 15.5V14H14V15.5C14 15.7761 13.7761 16 13.5 16H4.5C4.22386 16 4 15.7761 4 15.5V10C4 9.78479 4.13772 9.59372 4.34189 9.52566L10 7.63962V4.5C10 4.31061 10.107 4.13748 10.2764 4.05279L18.2764 0.0527869C18.4314 -0.0247102 18.6155 -0.0164282 18.7629 0.0746751ZM10 8.69371L5 10.3604V15H10V8.69371ZM11 15H13V13.5C13 13.2239 13.2239 13 13.5 13H15.5C15.7761 13 16 13.2239 16 13.5V15H18V1.30902L11 4.80902V15Z" fill="black"/>
<path d="M6 11H7V12H6V11Z" fill="black"/>
<path d="M8 11H9V12H8V11Z" fill="black"/>
<path d="M6 13H7V14H6V13Z" fill="black"/>
<path d="M8 13H9V14H8V13Z" fill="black"/>
<path d="M12 9H13V10H12V9Z" fill="black"/>
<path d="M14 9H15V10H14V9Z" fill="black"/>
<path d="M12 11H13V12H12V11Z" fill="black"/>
<path d="M14 11H15V12H14V11Z" fill="black"/>
<path d="M16 9H17V10H16V9Z" fill="black"/>
<path d="M16 11H17V12H16V11Z" fill="black"/>
<path d="M12 7H13V8H12V7Z" fill="black"/>
<path d="M14 7H15V8H14V7Z" fill="black"/>
<path d="M16 7H17V8H16V7Z" fill="black"/>
<path d="M12 5H13V6H12V5Z" fill="black"/>
<path d="M14 5H15V6H14V5Z" fill="black"/>
<path d="M16 5H17V6H16V5Z" fill="black"/>
<path d="M16 3H17V4H16V3Z" fill="black"/>
</g>
<defs>
<filter id="filter0_d_126_8793" x="0" y="0" width="23" height="24" filterUnits="userSpaceOnUse" color-interpolation-filters="sRGB">
<feFlood flood-opacity="0" result="BackgroundImageFix"/>
<feColorMatrix in="SourceAlpha" type="matrix" values="0 0 0 0 0 0 0 0 0 0 0 0 0 0 0 0 0 0 127 0" result="hardAlpha"/>
<feOffset dy="4"/>
<feGaussianBlur stdDeviation="2"/>
<feComposite in2="hardAlpha" operator="out"/>
<feColorMatrix type="matrix" values="0 0 0 0 0 0 0 0 0 0 0 0 0 0 0 0 0 0 0.25 0"/>
<feBlend mode="normal" in2="BackgroundImageFix" result="effect1_dropShadow_126_8793"/>
<feBlend mode="normal" in="SourceGraphic" in2="effect1_dropShadow_126_8793" result="shape"/>
</filter>
</defs>
</svg>
