<svg width="24" height="24" viewBox="0 0 24 24" fill="none" xmlns="http://www.w3.org/2000/svg">
<path d="M20 10.75H10C9.80109 10.75 9.61032 10.671 9.46967 10.5303C9.32902 10.3897 9.25 10.1989 9.25 10C9.25 9.80109 9.32902 9.61032 9.46967 9.46967C9.61032 9.32902 9.80109 9.25 10 9.25H20C20.1989 9.25 20.3897 9.32902 20.5303 9.46967C20.671 9.61032 20.75 9.80109 20.75 10C20.75 10.1989 20.671 10.3897 20.5303 10.5303C20.3897 10.671 20.1989 10.75 20 10.75Z" fill="#03161D"/>
<path d="M20.0698 6.75H4.06982C3.87091 6.75 3.68015 6.67098 3.53949 6.53033C3.39884 6.38968 3.31982 6.19891 3.31982 6C3.31982 5.80109 3.39884 5.61032 3.53949 5.46967C3.68015 5.32902 3.87091 5.25 4.06982 5.25H20.0698C20.2687 5.25 20.4595 5.32902 20.6002 5.46967C20.7408 5.61032 20.8198 5.80109 20.8198 6C20.8198 6.19891 20.7408 6.38968 20.6002 6.53033C20.4595 6.67098 20.2687 6.75 20.0698 6.75Z" fill="#03161D"/>
<path d="M20.0698 14.75H4.06982C3.87091 14.75 3.68015 14.671 3.53949 14.5303C3.39884 14.3897 3.31982 14.1989 3.31982 14C3.31982 13.8011 3.39884 13.6103 3.53949 13.4697C3.68015 13.329 3.87091 13.25 4.06982 13.25H20.0698C20.2687 13.25 20.4595 13.329 20.6002 13.4697C20.7408 13.6103 20.8198 13.8011 20.8198 14C20.8198 14.1989 20.7408 14.3897 20.6002 14.5303C20.4595 14.671 20.2687 14.75 20.0698 14.75Z" fill="#03161D"/>
<path d="M20 18.75H10C9.80109 18.75 9.61032 18.671 9.46967 18.5303C9.32902 18.3897 9.25 18.1989 9.25 18C9.25 17.8011 9.32902 17.6103 9.46967 17.4697C9.61032 17.329 9.80109 17.25 10 17.25H20C20.1989 17.25 20.3897 17.329 20.5303 17.4697C20.671 17.6103 20.75 17.8011 20.75 18C20.75 18.1989 20.671 18.3897 20.5303 18.5303C20.3897 18.671 20.1989 18.75 20 18.75Z" fill="#03161D"/>
</svg>
