<svg width="48" height="44" viewBox="0 0 48 44" fill="none" xmlns="http://www.w3.org/2000/svg">
<g clip-path="url(#clip0_483_13827)">
<path d="M14.9468 3.01874C15.0351 3.01856 15.1234 3.01837 15.2117 3.01816C15.4535 3.01764 15.6953 3.01744 15.9372 3.01731C16.1983 3.0171 16.4595 3.01661 16.7207 3.01615C17.351 3.01513 17.9814 3.0146 18.6118 3.01414C18.9091 3.01391 19.2064 3.01364 19.5038 3.01336C20.493 3.01248 21.4823 3.01173 22.4716 3.01135C22.7281 3.01125 22.9845 3.01115 23.241 3.01105C23.3048 3.01103 23.3685 3.011 23.4342 3.01098C24.4657 3.01055 25.4972 3.00923 26.5287 3.00754C27.5893 3.00582 28.6499 3.00489 29.7104 3.00473C30.3053 3.00461 30.9001 3.00416 31.495 3.00283C32.0018 3.0017 32.5086 3.00129 33.0154 3.00179C33.2736 3.00203 33.5317 3.00194 33.7898 3.00092C34.8148 2.99711 35.8128 2.99401 36.8081 3.23405C36.8796 3.25113 36.8796 3.25113 36.9525 3.26856C37.9587 3.51328 38.9128 3.91276 39.7251 4.48011C39.7753 4.51484 39.7753 4.51484 39.8264 4.55028C41.593 5.78175 42.7249 7.4815 42.9607 9.42992C43.1583 11.2641 42.6147 13.1579 41.2444 14.6043C41.2172 14.633 41.19 14.6617 41.162 14.6913C40.1176 15.7846 38.8253 16.5845 37.2563 17.0412C37.2086 17.0553 37.1609 17.0693 37.1117 17.0838C36.1884 17.3361 35.2764 17.3785 34.3151 17.3737C34.1904 17.3736 34.0657 17.3737 33.941 17.3738C33.6058 17.3738 33.2707 17.3729 32.9355 17.3718C32.584 17.3708 32.2325 17.3707 31.881 17.3705C31.2168 17.3701 30.5527 17.3688 29.8885 17.3672C28.99 17.3651 28.0915 17.3643 27.193 17.3634C25.7794 17.3619 24.3659 17.3588 22.9524 17.356C22.9524 19.6176 22.9524 21.8792 22.9524 24.2093C22.5422 24.1509 22.5422 24.1509 22.34 24.0716C22.2946 24.0541 22.2491 24.0365 22.2023 24.0183C22.1539 23.9992 22.1056 23.98 22.0558 23.9603C22.0044 23.9403 21.9531 23.9203 21.9002 23.8997C21.7329 23.8345 21.5659 23.7688 21.3989 23.7031C21.2823 23.6576 21.1657 23.6121 21.049 23.5666C20.8169 23.4761 20.5848 23.3855 20.3528 23.2948C19.9517 23.1381 19.5493 22.9838 19.1466 22.8302C18.4498 22.5639 17.7536 22.2964 17.0576 22.0287C16.345 21.7546 15.6323 21.4808 14.9192 21.2077C14.8489 21.1808 14.7786 21.1539 14.7062 21.1262C14.3543 20.9915 14.0024 20.8569 13.6504 20.7224C13.322 20.597 12.994 20.4711 12.666 20.345C12.4205 20.2507 12.1745 20.1575 11.9283 20.0646C10.0502 19.3552 10.0502 19.3552 9.33967 18.9136C9.30597 18.8933 9.27226 18.8731 9.23754 18.8522C8.23672 18.2467 7.3248 17.4616 6.66575 16.5772C6.63791 16.54 6.61007 16.5029 6.58139 16.4646C6.02958 15.7162 5.62592 14.9285 5.34018 14.0786C5.32351 14.0295 5.32351 14.0295 5.30651 13.9794C5.08607 13.2757 4.99419 12.5698 5.00117 11.8434C5.00215 11.7228 5.00117 11.6023 5.00001 11.4817C4.99873 10.7339 5.12142 10.0036 5.37057 9.28585C5.38606 9.24076 5.40155 9.19567 5.41751 9.14921C5.89131 7.8159 6.70187 6.68302 7.8204 5.67424C7.8739 5.62519 7.92741 5.57613 7.98253 5.52558C9.77306 3.91674 12.3649 3.01828 14.9468 3.01874Z" fill="#02B7FA"/>
<path d="M25.0746 18.907C25.2902 18.9454 25.4287 18.9729 25.6192 19.0504C25.6646 19.0687 25.7101 19.087 25.7569 19.1059C25.8056 19.1259 25.8542 19.1458 25.9044 19.1664C25.9558 19.1872 26.0072 19.208 26.0602 19.2295C26.228 19.2975 26.3956 19.3659 26.5632 19.4343C26.6796 19.4815 26.796 19.5287 26.9124 19.5758C27.1447 19.6699 27.3769 19.7641 27.6091 19.8584C28.0256 20.0273 28.443 20.1941 28.8608 20.3604C28.9308 20.3883 29.0008 20.4162 29.073 20.4449C29.2113 20.5 29.3496 20.5551 29.4879 20.6102C29.8359 20.7488 30.1839 20.8875 30.5318 21.0263C30.6383 21.0688 30.6383 21.0688 30.747 21.1121C31.441 21.389 32.1344 21.6669 32.8278 21.9447C33.4161 22.1804 34.0044 22.416 34.5932 22.6509C34.7349 22.7074 34.8767 22.764 35.0184 22.8207C35.3445 22.951 35.6708 23.0807 35.998 23.2087C37.3811 23.7503 38.6527 24.3193 39.7475 25.2632C39.8433 25.3456 39.9403 25.4268 40.0374 25.508C41.9481 27.1316 42.9355 29.4555 42.9995 31.7814C43.0161 33.3833 42.5924 34.9189 41.7235 36.321C41.703 36.3547 41.6825 36.3883 41.6614 36.4229C40.3733 38.5151 38.1316 40.0047 35.5834 40.676C34.7189 40.892 33.8734 40.9884 32.9744 40.9864C32.8858 40.9866 32.7972 40.9869 32.7086 40.9872C32.4677 40.9878 32.2267 40.9878 31.9857 40.9877C31.7248 40.9877 31.464 40.9883 31.2031 40.9888C30.6929 40.9897 30.1827 40.99 29.6726 40.99C29.2575 40.9901 28.8424 40.9903 28.4273 40.9907C27.2482 40.9916 26.0691 40.9921 24.8899 40.992C24.8265 40.992 24.763 40.992 24.6977 40.992C24.6341 40.992 24.5706 40.992 24.5052 40.992C23.4762 40.992 22.4472 40.993 21.4182 40.9945C20.3594 40.9961 19.3006 40.9968 18.2418 40.9967C17.6483 40.9967 17.0548 40.997 16.4612 40.9982C15.9558 40.9991 15.4504 40.9994 14.945 40.9986C14.6876 40.9983 14.4303 40.9983 14.1729 40.9992C13.1497 41.0027 12.1535 41.005 11.1599 40.7557C11.1123 40.7438 11.0647 40.732 11.0156 40.7197C9.8625 40.4277 8.86067 39.9197 7.9395 39.2414C7.90592 39.2168 7.87234 39.1922 7.83774 39.1668C6.27344 38.0029 5.2519 36.2231 5.0229 34.4282C5.00368 34.1306 4.99919 33.8339 5.00011 33.5359C5.00014 33.4954 5.00018 33.4549 5.00021 33.4131C5.00267 32.7563 5.05964 32.1416 5.26595 31.5078C5.27832 31.4675 5.2907 31.4272 5.30345 31.3857C5.62455 30.3574 6.20601 29.4605 6.9673 28.6415C6.99494 28.6116 7.02258 28.5818 7.05106 28.551C8.35668 27.1609 10.36 26.2452 12.3752 26.0457C12.7909 26.0263 13.2076 26.032 13.6237 26.0334C13.7489 26.0334 13.8742 26.0334 13.9994 26.0333C14.3374 26.0333 14.6754 26.0339 15.0135 26.0347C15.3675 26.0354 15.7214 26.0354 16.0754 26.0356C16.7449 26.0359 17.4143 26.0368 18.0838 26.0379C18.989 26.0393 19.8942 26.0399 20.7995 26.0405C22.2245 26.0415 23.6495 26.0437 25.0746 26.0457C25.0746 23.6899 25.0746 21.3341 25.0746 18.907Z" fill="#02B7FA"/>
</g>
<defs>
<clipPath id="clip0_483_13827">
<rect width="38" height="38" fill="white" transform="translate(5 3)"/>
</clipPath>
</defs>
</svg>
