<svg width="24" height="24" viewBox="0 0 24 24" fill="none" xmlns="http://www.w3.org/2000/svg">
<path d="M10.9993 18.7498C10.9008 18.7503 10.8032 18.7311 10.7121 18.6933C10.6211 18.6555 10.5386 18.6 10.4693 18.5298L4.46934 12.5298C4.32889 12.3892 4.25 12.1986 4.25 11.9998C4.25 11.8011 4.32889 11.6105 4.46934 11.4698L10.4693 5.46985C10.6115 5.33737 10.7996 5.26524 10.9939 5.26867C11.1882 5.2721 11.3735 5.35081 11.511 5.48822C11.6484 5.62564 11.7271 5.81102 11.7305 6.00532C11.7339 6.19963 11.6618 6.38767 11.5293 6.52985L6.05934 11.9998L11.5293 17.4698C11.6698 17.6105 11.7487 17.8011 11.7487 17.9998C11.7487 18.1986 11.6698 18.3892 11.5293 18.5298C11.4601 18.6 11.3775 18.6555 11.2865 18.6933C11.1955 18.7311 11.0979 18.7503 10.9993 18.7498Z" fill="#1E293B"/>
<path d="M19 12.75H5C4.80109 12.75 4.61032 12.671 4.46967 12.5303C4.32902 12.3897 4.25 12.1989 4.25 12C4.25 11.8011 4.32902 11.6103 4.46967 11.4697C4.61032 11.329 4.80109 11.25 5 11.25H19C19.1989 11.25 19.3897 11.329 19.5303 11.4697C19.671 11.6103 19.75 11.8011 19.75 12C19.75 12.1989 19.671 12.3897 19.5303 12.5303C19.3897 12.671 19.1989 12.75 19 12.75Z" fill="#1E293B"/>
</svg>
