<svg width="24" height="24" viewBox="0 0 24 24" fill="none" xmlns="http://www.w3.org/2000/svg">
<rect x="0.5" y="0.5" width="23" height="23" rx="7.5" stroke="#02B7FA"/>
<path d="M12.5 10.5C12.5 10.2239 12.2761 10 12 10C11.7239 10 11.5 10.2239 11.5 10.5V14.2929L10.3536 13.1464C10.1583 12.9512 9.84171 12.9512 9.64645 13.1464C9.45118 13.3417 9.45118 13.6583 9.64645 13.8536L11.6464 15.8536C11.8417 16.0488 12.1583 16.0488 12.3536 15.8536L14.3536 13.8536C14.5488 13.6583 14.5488 13.3417 14.3536 13.1464C14.1583 12.9512 13.8417 12.9512 13.6464 13.1464L12.5 14.2929V10.5Z" fill="#02B7FA"/>
<path d="M18 18V8.5L13.5 4H8C6.89543 4 6 4.89543 6 6V18C6 19.1046 6.89543 20 8 20H16C17.1046 20 18 19.1046 18 18ZM13.5 7C13.5 7.82843 14.1716 8.5 15 8.5H17V18C17 18.5523 16.5523 19 16 19H8C7.44772 19 7 18.5523 7 18V6C7 5.44772 7.44772 5 8 5H13.5V7Z" fill="#02B7FA"/>
</svg>
