<svg width="16" height="17" viewBox="0 0 16 17" fill="none" xmlns="http://www.w3.org/2000/svg">
<mask id="mask0_859_10912" style="mask-type:alpha" maskUnits="userSpaceOnUse" x="0" y="0" width="16" height="17">
<rect y="0.5" width="16" height="16" fill="#D9D9D9"/>
</mask>
<g mask="url(#mask0_859_10912)">
<path d="M3.99935 15.1665C3.63268 15.1665 3.31879 15.0359 3.05768 14.7748C2.79657 14.5137 2.66602 14.1998 2.66602 13.8332V7.1665C2.66602 6.79984 2.79657 6.48595 3.05768 6.22484C3.31879 5.96373 3.63268 5.83317 3.99935 5.83317H4.66602V4.49984C4.66602 3.57762 4.99102 2.7915 5.64102 2.1415C6.29102 1.4915 7.07713 1.1665 7.99935 1.1665C8.92157 1.1665 9.70768 1.4915 10.3577 2.1415C11.0077 2.7915 11.3327 3.57762 11.3327 4.49984V5.83317H11.9993C12.366 5.83317 12.6799 5.96373 12.941 6.22484C13.2021 6.48595 13.3327 6.79984 13.3327 7.1665V13.8332C13.3327 14.1998 13.2021 14.5137 12.941 14.7748C12.6799 15.0359 12.366 15.1665 11.9993 15.1665H3.99935ZM3.99935 13.8332H11.9993V7.1665H3.99935V13.8332ZM7.99935 11.8332C8.36602 11.8332 8.6799 11.7026 8.94102 11.4415C9.20213 11.1804 9.33268 10.8665 9.33268 10.4998C9.33268 10.1332 9.20213 9.81928 8.94102 9.55817C8.6799 9.29706 8.36602 9.1665 7.99935 9.1665C7.63268 9.1665 7.31879 9.29706 7.05768 9.55817C6.79657 9.81928 6.66602 10.1332 6.66602 10.4998C6.66602 10.8665 6.79657 11.1804 7.05768 11.4415C7.31879 11.7026 7.63268 11.8332 7.99935 11.8332ZM5.99935 5.83317H9.99935V4.49984C9.99935 3.94428 9.8049 3.47206 9.41602 3.08317C9.02713 2.69428 8.5549 2.49984 7.99935 2.49984C7.44379 2.49984 6.97157 2.69428 6.58268 3.08317C6.19379 3.47206 5.99935 3.94428 5.99935 4.49984V5.83317Z" fill="#02B7FA"/>
</g>
</svg>
