<svg width="24" height="24" viewBox="0 0 24 24" fill="none" xmlns="http://www.w3.org/2000/svg">
<rect x="0.5" y="0.5" width="23" height="23" rx="7.5" stroke="#02B7FA"/>
<path d="M12.5 15.5C12.5 15.7761 12.2761 16 12 16C11.7239 16 11.5 15.7761 11.5 15.5V11.7071L10.3536 12.8536C10.1583 13.0488 9.84171 13.0488 9.64645 12.8536C9.45118 12.6583 9.45118 12.3417 9.64645 12.1464L11.6464 10.1464C11.8417 9.95118 12.1583 9.95118 12.3536 10.1464L14.3536 12.1464C14.5488 12.3417 14.5488 12.6583 14.3536 12.8536C14.1583 13.0488 13.8417 13.0488 13.6464 12.8536L12.5 11.7071V15.5Z" fill="#02B7FA"/>
<path d="M18 18V8.5L13.5 4H8C6.89543 4 6 4.89543 6 6V18C6 19.1046 6.89543 20 8 20H16C17.1046 20 18 19.1046 18 18ZM13.5 7C13.5 7.82843 14.1716 8.5 15 8.5H17V18C17 18.5523 16.5523 19 16 19H8C7.44772 19 7 18.5523 7 18V6C7 5.44772 7.44772 5 8 5H13.5V7Z" fill="#02B7FA"/>
</svg>
