<svg width="16" height="17" viewBox="0 0 16 17" fill="none" xmlns="http://www.w3.org/2000/svg">
<path d="M4 11.2813C4.14782 12.9484 5.51294 14.1306 7.59107 14.2837V15.5H8.63448V14.2837C10.9039 14.1051 12.3125 12.8463 12.3125 10.9836C12.3125 9.39307 11.3647 8.47448 9.35617 7.95565L8.63448 7.76853V3.96659C9.75615 4.07716 10.5126 4.68104 10.7039 5.58262H12.1734C12.0082 3.9836 10.6343 2.83536 8.63448 2.70778V1.5H7.59107V2.73329C5.65207 2.96294 4.32172 4.20474 4.32172 5.88882C4.32172 7.34326 5.28687 8.37242 6.98241 8.8062L7.59107 8.9678V12.9994C6.44332 12.8293 5.65207 12.1999 5.46077 11.2813H4ZM7.39108 7.44532C6.34767 7.18165 5.79119 6.62029 5.79119 5.82928C5.79119 4.88518 6.49549 4.18773 7.59107 4.00061V7.49635L7.39108 7.44532ZM8.98228 9.31652C10.2692 9.63973 10.8343 10.1756 10.8343 11.0857C10.8343 12.1829 10.0083 12.9143 8.63448 13.0249V9.23147L8.98228 9.31652Z" fill="#FF9871"/>
</svg>
