<svg width="16" height="17" viewBox="0 0 16 17" fill="none" xmlns="http://www.w3.org/2000/svg">
<path d="M16 8.5C16 12.9183 12.4183 16.5 8 16.5C3.58172 16.5 0 12.9183 0 8.5C0 4.08172 3.58172 0.5 8 0.5C12.4183 0.5 16 4.08172 16 8.5ZM8 4.5C7.46459 4.5 7.04623 4.96229 7.0995 5.49504L7.45025 9.00248C7.47849 9.28492 7.71616 9.5 8 9.5C8.28384 9.5 8.52151 9.28492 8.54975 9.00248L8.9005 5.49504C8.95377 4.96228 8.53541 4.5 8 4.5ZM8.00154 10.5C7.44926 10.5 7.00154 10.9477 7.00154 11.5C7.00154 12.0523 7.44926 12.5 8.00154 12.5C8.55383 12.5 9.00154 12.0523 9.00154 11.5C9.00154 10.9477 8.55383 10.5 8.00154 10.5Z" fill="#FEC53D"/>
</svg>
