<svg width="12" height="12" viewBox="0 0 12 12" fill="none" xmlns="http://www.w3.org/2000/svg">
<path d="M11.998 6C11.998 9.31371 9.31176 12 5.99805 12C2.68434 12 -0.00195312 9.31371 -0.00195312 6C-0.00195312 2.68629 2.68434 0 5.99805 0C9.31176 0 11.998 2.68629 11.998 6ZM5.99805 3C5.59649 3 5.28272 3.34671 5.32267 3.74628L5.58573 6.37686C5.60692 6.58869 5.78516 6.75 5.99805 6.75C6.21093 6.75 6.38918 6.58869 6.41036 6.37686L6.67342 3.74628C6.71338 3.34671 6.3996 3 5.99805 3ZM5.9992 7.5C5.58499 7.5 5.2492 7.83579 5.2492 8.25C5.2492 8.66421 5.58499 9 5.9992 9C6.41342 9 6.7492 8.66421 6.7492 8.25C6.7492 7.83579 6.41342 7.5 5.9992 7.5Z" fill="#FEC53D"/>
</svg>
